<svg width="56" height="56" viewBox="0 0 56 56" fill="none" xmlns="http://www.w3.org/2000/svg">
<rect width="56" height="56" fill="#EEF3FE"/>
<path d="M21.2 24.4H34.8C35.4629 24.4 36 23.8629 36 23.2C36 22.5371 35.4629 22 34.8 22H21.2C20.5371 22 20 22.5371 20 23.2C20 23.8629 20.5371 24.4 21.2 24.4Z" fill="black"/>
<path d="M34.8 26.7998H21.2C20.5371 26.7998 20 27.3369 20 27.9998C20 28.6627 20.5371 29.1998 21.2 29.1998H34.8C35.4629 29.1998 36 28.6627 36 27.9998C36 27.3369 35.4629 26.7998 34.8 26.7998Z" fill="black"/>
<path d="M34.8 31.6001H21.2C20.5371 31.6001 20 32.1372 20 32.8001C20 33.463 20.5371 34.0001 21.2 34.0001H34.8C35.4629 34.0001 36 33.463 36 32.8001C36 32.1372 35.4629 31.6001 34.8 31.6001Z" fill="black"/>
</svg>
