<svg width="24" height="24" viewBox="0 0 24 24" fill="none" xmlns="http://www.w3.org/2000/svg">
<path d="M20.5938 4H3.40625C2.07946 4 1 5.07946 1 6.40625V16.7188C1 18.0455 2.07946 19.125 3.40625 19.125H20.5938C21.9205 19.125 23 18.0455 23 16.7188V6.40625C23 5.07946 21.9205 4 20.5938 4ZM3.40625 5.375H20.5938C21.1624 5.375 21.625 5.83764 21.625 6.40625V7.78125H2.375V6.40625C2.375 5.83764 2.83764 5.375 3.40625 5.375ZM20.5938 17.75H3.40625C2.83764 17.75 2.375 17.2874 2.375 16.7188V9.15625H21.625V16.7188C21.625 17.2874 21.1624 17.75 20.5938 17.75Z" fill="#141414"/>
<path d="M5.8125 15.6875H5.125C4.74533 15.6875 4.4375 15.3797 4.4375 15V14.3125C4.4375 13.9328 4.74533 13.625 5.125 13.625H5.8125C6.19217 13.625 6.5 13.9328 6.5 14.3125V15C6.5 15.3797 6.19217 15.6875 5.8125 15.6875Z" fill="#141414"/>
</svg>
