<svg width="24" height="24" viewBox="0 0 24 24" fill="none" xmlns="http://www.w3.org/2000/svg">
<g clip-path="url(#clip0_179_1186)">
<path fill-rule="evenodd" clip-rule="evenodd" d="M9.50826 15.5665H16.8274C17.6561 13.1267 21.114 13.1501 21.9347 15.5665H22.5463V12.0496C22.5463 11.6115 22.1872 11.2524 21.7492 11.2524C19.9517 11.2524 18.1541 11.2524 16.3566 11.2524C15.968 11.2524 15.6531 10.9374 15.6531 10.5491V6.32868H3.60182V7.17261H4.8951C5.82106 7.17261 5.82106 8.57941 4.8951 8.57941H3.60182V9.93933H6.97811C7.90426 9.93933 7.90426 11.3461 6.97811 11.3461H3.60182V15.5664H4.40108C5.22963 13.1265 8.68776 13.1503 9.50826 15.5665ZM2.19502 8.57941H1.35109C0.424942 8.57941 0.424942 7.17261 1.35109 7.17261H2.19502V5.62518C2.19502 5.23682 2.50997 4.92188 2.89852 4.92188C3.97499 4.92188 15.8056 4.92645 15.8056 4.92188C17.7312 4.92188 19.4084 5.87512 20.3954 7.53131L21.7745 9.84577C22.9781 9.85932 23.9531 10.8439 23.9531 12.0494V16.2698C23.9531 16.6582 23.6382 16.9732 23.2498 16.9732H22.0235C21.7714 18.2146 20.6744 19.1301 19.3811 19.1301C18.0879 19.1301 16.9909 18.2146 16.7387 16.9732H9.59707C9.34493 18.2146 8.24794 19.1301 6.95467 19.1301C5.6614 19.1301 4.56441 18.2146 4.31227 16.9732H2.89852C2.50997 16.9732 2.19502 16.6582 2.19502 16.2698V14.1596H0.647599C-0.278366 14.1596 -0.278366 12.7529 0.647599 12.7529H2.19502V11.3461H0.647599C-0.278366 11.3461 -0.278366 9.93933 0.647599 9.93933H2.19502V8.57941ZM20.293 15.522C20.7965 16.0256 20.7965 16.8422 20.293 17.3458C19.4829 18.1558 18.0915 17.5796 18.0915 16.4339C18.0915 15.2882 19.4829 14.712 20.293 15.522ZM20.1419 9.84558H17.0599V6.51929C17.9573 6.80695 18.6912 7.41083 19.1918 8.2511L20.1419 9.84558ZM7.86654 15.522C8.37008 16.0256 8.37008 16.8422 7.86654 17.3458C7.05648 18.1558 5.66506 17.5796 5.66506 16.4339C5.66524 15.2882 7.05648 14.712 7.86654 15.522Z" fill="#141414"/>
</g>
<defs>
<clipPath id="clip0_179_1186">
<rect width="24" height="24" fill="white"/>
</clipPath>
</defs>
</svg>
