<svg width="12" height="12" viewBox="0 0 12 12" fill="none" xmlns="http://www.w3.org/2000/svg">
<path d="M11.3445 3.63904L9.61378 1.56212C9.5809 1.52284 9.53227 1.5 9.48085 1.5H2.90394C2.85255 1.5 2.80391 1.52268 2.77101 1.56212L1.04026 3.63904C0.997157 3.69062 0.987807 3.76244 1.01636 3.82318C1.04492 3.88393 1.10601 3.92287 1.17317 3.92287H11.2116C11.2787 3.92287 11.3398 3.88393 11.3684 3.82318C11.3968 3.76262 11.3876 3.69078 11.3445 3.63904ZM1.54271 3.57673L2.98495 1.84598H9.39968L10.8419 3.57673H1.54271Z" fill="#757575"/>
<path d="M6.35248 1.60679C6.32564 1.54207 6.26248 1.5 6.19255 1.5H2.90411C2.84215 1.5 2.78503 1.53306 2.75406 1.58689C2.72309 1.64072 2.72325 1.70666 2.75459 1.7603L3.96611 3.83722C3.99311 3.88342 4.04002 3.91476 4.09333 3.92168C4.10077 3.92255 4.10821 3.92305 4.11547 3.92305C4.16117 3.92305 4.2053 3.90506 4.23802 3.87235L6.31493 1.79543C6.36442 1.74594 6.37931 1.67151 6.35248 1.60679ZM4.15182 3.46891L3.20526 1.84616H5.77457L4.15182 3.46891Z" fill="#757575"/>
<path d="M11.3665 3.67306C11.3374 3.61404 11.2772 3.57666 11.2114 3.57666H1.17302C1.10725 3.57666 1.04719 3.61404 1.01794 3.67306C0.988858 3.73208 0.995612 3.80252 1.03559 3.85479L6.05481 10.4317C6.08752 10.4746 6.13841 10.4999 6.1924 10.4999C6.24639 10.4999 6.29728 10.4746 6.32965 10.4317L11.3489 3.85479C11.3889 3.80252 11.3956 3.73208 11.3665 3.67306ZM6.1924 10.0416L1.52297 3.923H10.8618L6.1924 10.0416Z" fill="#757575"/>
<path d="M6.35754 10.2745L4.28063 3.69764C4.25779 3.62564 4.19114 3.57666 4.11551 3.57666H1.1732C1.10743 3.57666 1.04737 3.61404 1.01813 3.67306C0.989041 3.73208 0.995795 3.80252 1.03577 3.85479L6.05499 10.4317C6.08856 10.4758 6.13997 10.4999 6.19259 10.4999C6.21958 10.4999 6.24692 10.4937 6.27219 10.4802C6.34681 10.4416 6.38279 10.3547 6.35754 10.2745ZM1.52299 3.923H3.98864L5.72909 9.43445L1.52299 3.923Z" fill="#757575"/>
<path d="M9.63092 1.58689C9.60011 1.53306 9.54283 1.5 9.48087 1.5H6.1924C6.12249 1.5 6.05931 1.54207 6.03248 1.60679C6.00564 1.67151 6.02053 1.74594 6.07004 1.79543L8.14696 3.87235C8.17949 3.90506 8.22362 3.92305 8.26932 3.92305C8.27676 3.92305 8.28421 3.92253 8.29165 3.92168C8.34479 3.91476 8.39187 3.88361 8.41886 3.83722L9.63039 1.7603C9.66154 1.70666 9.66173 1.64072 9.63092 1.58689ZM8.23297 3.46891L6.6102 1.84616H9.17951L8.23297 3.46891Z" fill="#757575"/>
<path d="M11.3669 3.67355C11.3378 3.61453 11.2776 3.57715 11.2118 3.57715H8.26947C8.19384 3.57715 8.12703 3.62613 8.10435 3.69813L6.02744 10.275C6.00217 10.355 6.03817 10.4419 6.11277 10.4807C6.13804 10.4938 6.16538 10.5001 6.19237 10.5001C6.24482 10.5001 6.29622 10.476 6.32997 10.4322L11.3492 3.8553C11.3892 3.80299 11.3959 3.73255 11.3669 3.67355ZM6.65573 9.43456L8.39618 3.9231H10.8618L6.65573 9.43456Z" fill="#757575"/>
</svg>
