<svg width="16" height="16" viewBox="0 0 16 16" fill="none" xmlns="http://www.w3.org/2000/svg">
<path d="M12.0045 1.5107C11.8908 1.39708 11.7367 1.33325 11.576 1.33325C11.4153 1.33325 11.2612 1.39708 11.1475 1.5107L4.35956 8.29865C4.29262 8.36494 4.24236 8.44615 4.21289 8.53563L3.24318 11.4448C3.21284 11.5359 3.20458 11.6329 3.21908 11.7278C3.23359 11.8227 3.27044 11.9129 3.32661 11.9908C3.38278 12.0687 3.45666 12.1321 3.54215 12.1758C3.62765 12.2196 3.72231 12.2424 3.81834 12.2423C3.88347 12.2423 3.94816 12.2317 4.00986 12.2108L6.91898 11.2411C7.00846 11.2116 7.08967 11.1614 7.15595 11.0944L13.9439 4.30649C14.0575 4.19283 14.1214 4.03871 14.1214 3.878C14.1214 3.71729 14.0575 3.56316 13.9439 3.44951L12.0045 1.5107ZM6.40019 10.1369L4.77653 10.6781L5.31775 9.05442L11.576 2.79617L12.6584 3.87861L6.40019 10.1369Z" fill="black"/>
<path d="M12.9092 13.4543H2.60607C2.44533 13.4543 2.29117 13.5182 2.17751 13.6319C2.06385 13.7455 2 13.8997 2 14.0604C2 14.2212 2.06385 14.3753 2.17751 14.489C2.29117 14.6026 2.44533 14.6665 2.60607 14.6665H12.9092C13.07 14.6665 13.2241 14.6026 13.3378 14.489C13.4514 14.3753 13.5153 14.2212 13.5153 14.0604C13.5153 13.8997 13.4514 13.7455 13.3378 13.6319C13.2241 13.5182 13.07 13.4543 12.9092 13.4543Z" fill="black"/>
</svg>
