<svg width="20" height="20" viewBox="0 0 20 20" fill="none" xmlns="http://www.w3.org/2000/svg">
<path d="M17.9417 2.01611H14.3933V2.60751H17.9417V2.01611Z" fill="#141414"/>
<path d="M15.6905 16.8013L15.006 14.7474C14.7668 14.0303 14.1565 13.501 13.4125 13.3656L11.4363 13.006V12.8528C11.7802 12.6532 12.0795 12.3862 12.3178 12.0701H12.9148C13.4039 12.0701 13.8019 11.6721 13.8019 11.183V7.63461C13.8019 5.51504 12.0774 3.79053 9.95782 3.79053C7.83825 3.79053 6.11374 5.51504 6.11374 7.63461V9.70451C6.11374 10.2746 6.51914 10.7516 7.05672 10.8628C7.22261 11.7126 7.75368 12.4317 8.47933 12.8528V13.006L6.50288 13.3656C5.7592 13.501 5.14858 14.0303 4.90965 14.7474L4.79137 15.1025L3.78422 14.0953C3.6689 13.98 3.6689 13.7922 3.78422 13.6769L4.95223 12.5092L2.75992 10.3169L1.43992 11.6369C1.04901 12.0278 0.83374 12.5477 0.83374 13.1006C0.83374 13.6536 1.04901 14.1731 1.43992 14.564L5.43629 18.5604C5.82721 18.9513 6.34705 19.1669 6.9 19.1669C7.45296 19.1669 7.9725 18.9513 8.35425 18.5693L9.7946 17.2496L9.34543 16.8013H15.6905ZM13.2105 11.183C13.2105 11.3462 13.0777 11.4787 12.9148 11.4787H12.6661C12.7519 11.2832 12.8169 11.0771 12.8589 10.8628C12.9855 10.8364 13.102 10.7862 13.2105 10.7229V11.183ZM12.9148 10.2137V9.19531C13.0908 9.29792 13.2105 9.48658 13.2105 9.70451C13.2105 9.92244 13.0908 10.1111 12.9148 10.2137ZM7.00084 10.2137C6.82489 10.1111 6.70514 9.92244 6.70514 9.70451C6.70514 9.48658 6.82489 9.29792 7.00084 9.19531V10.2137ZM7.00084 8.22601V8.5637C6.89557 8.5912 6.7968 8.6326 6.70514 8.68612V7.63461C6.70514 5.8412 8.16441 4.38193 9.95782 4.38193C11.7512 4.38193 13.2105 5.8412 13.2105 7.63461V8.68612C13.1188 8.6326 13.0201 8.5909 12.9148 8.5637V8.22601H12.6191C11.7447 8.22601 10.9227 7.88537 10.3041 7.26706L9.95782 6.9208L9.61156 7.26706C8.99296 7.88537 8.17092 8.22601 7.29653 8.22601H7.00084ZM7.59223 10.2959V8.80617C8.48022 8.73934 9.30817 8.37297 9.95782 7.75526C10.6075 8.37297 11.4354 8.73964 12.3234 8.80617V10.2959C12.3234 10.727 12.2057 11.1304 12.0035 11.4787H9.95782V12.0701H11.5173C11.1004 12.4371 10.5554 12.6615 9.95782 12.6615C8.6535 12.6615 7.59223 11.6002 7.59223 10.2959ZM10.8449 13.1166V13.1305L9.95782 14.0176L9.07073 13.1305V13.1166C9.35105 13.2047 9.64882 13.2529 9.95782 13.2529C10.2668 13.2529 10.5646 13.2047 10.8449 13.1166ZM5.4703 14.9342C5.64092 14.4221 6.07707 14.0439 6.60844 13.9469L8.67538 13.5714L9.95782 14.8538L11.24 13.5717L13.3066 13.9472C13.838 14.0442 14.2741 14.4221 14.4448 14.9345L14.8703 16.2099H8.75403L7.60229 15.0581L6.3225 16.2158C6.21102 16.3279 6.01616 16.3279 5.90439 16.2158L5.25858 15.57L5.4703 14.9342ZM2.75963 11.1531L4.1157 12.5092L3.79457 12.8303L2.4385 11.4743L2.75963 11.1531ZM7.94471 18.1429C7.66557 18.4214 7.29417 18.5755 6.89941 18.5755C6.50465 18.5755 6.13326 18.4214 5.85382 18.1423L1.85745 14.1462C1.57831 13.8671 1.42455 13.4957 1.42455 13.1009C1.42455 12.7058 1.57831 12.3345 1.85745 12.0553L2.02008 11.8927L3.37616 13.2488L3.36551 13.2594C3.01984 13.6054 3.01984 14.1681 3.36551 14.514L5.48597 16.6345C5.65363 16.8019 5.87629 16.8944 6.11344 16.8944C6.35059 16.8944 6.57326 16.8022 6.72998 16.6449L6.75215 16.625L8.11444 17.9873L7.94471 18.1429ZM8.55089 17.587L7.19156 16.2276L7.58218 15.8746L8.93914 17.2315L8.55089 17.587Z" fill="black"/>
<path d="M18.2373 0.833496H14.0975C13.6085 0.833496 13.2104 1.23151 13.2104 1.72059V4.08618C13.2104 4.57527 13.6085 4.97328 14.0975 4.97328H14.8874L14.5816 6.75664L17.4351 4.97328H18.2373C18.7264 4.97328 19.1244 4.57527 19.1244 4.08618V1.72059C19.1244 1.23151 18.7264 0.833496 18.2373 0.833496ZM18.533 4.08618C18.533 4.24911 18.4003 4.38188 18.2373 4.38188H17.2654L15.3874 5.55551L15.5888 4.38188H14.0975C13.9346 4.38188 13.8018 4.24911 13.8018 4.08618V1.72059C13.8018 1.55766 13.9346 1.42489 14.0975 1.42489H18.2373C18.4003 1.42489 18.533 1.55766 18.533 1.72059V4.08618Z" fill="black"/>
<path d="M16.7589 3.19922H14.3933V3.79062H16.7589V3.19922Z" fill="black"/>
<path d="M17.9416 3.19922H17.3502V3.79062H17.9416V3.19922Z" fill="black"/>
<path d="M9.95775 1.7207C6.09415 1.7207 2.76606 4.39323 1.90085 8.12111L1.3405 7.18699L0.833374 7.49127L1.87276 9.22318L3.60466 8.18379L3.30039 7.67667L2.49905 8.15748C3.33706 4.74718 6.40375 2.3121 9.95775 2.3121C10.7346 2.3121 11.501 2.42742 12.2358 2.65511L12.4109 2.09033C11.6193 1.8449 10.794 1.7207 9.95775 1.7207Z" fill="black"/>
<path d="M18.9807 7.38069L17.2488 6.34131L16.2097 8.07351L16.7168 8.37779L17.2343 7.51523C17.5066 8.31214 17.6459 9.14572 17.6459 9.99999C17.6459 11.7585 17.0368 13.4777 15.9312 14.8406L16.3904 15.2132C17.5814 13.7453 18.2373 11.8936 18.2373 9.99999C18.2373 9.09545 18.0915 8.21219 17.8074 7.3665L18.6764 7.88781L18.9807 7.38069Z" fill="black"/>
</svg>
