<svg width="17" height="20" viewBox="0 0 17 20" fill="none" xmlns="http://www.w3.org/2000/svg">
<path d="M14.6262 0.833496H4.31147C3.1063 0.834042 2.12934 1.81086 2.12893 3.01604V3.95889H1.10313C0.861963 3.95889 0.666626 4.15437 0.666626 4.3954C0.666626 4.63643 0.861963 4.83191 1.10313 4.83191H2.12443V7.6954H1.10313C0.861963 7.6954 0.666626 7.89074 0.666626 8.13191C0.666626 8.37294 0.861963 8.56842 1.10313 8.56842H2.12443V11.4319H1.10313C0.861963 11.4319 0.666626 11.6274 0.666626 11.8684C0.666626 12.1096 0.861963 12.3049 1.10313 12.3049H2.12443V15.1684H1.10313C0.861963 15.1684 0.666626 15.3639 0.666626 15.6049C0.666626 15.846 0.861963 16.0414 1.10313 16.0414H2.12443V16.9843C2.12497 18.1895 3.10179 19.1663 4.30697 19.1668H14.6216C15.8268 19.1663 16.8039 18.1895 16.8042 16.9843V3.01604C16.806 1.81168 15.8305 0.834315 14.6262 0.833496ZM15.9357 16.9843C15.9335 17.7066 15.3484 18.2918 14.6262 18.2938H4.31147C3.58918 18.2918 3.00399 17.7066 3.00194 16.9843V16.0414H4.02324C4.26441 16.0414 4.45974 15.846 4.45974 15.6049C4.45974 15.3639 4.26441 15.1684 4.02324 15.1684H3.00194V12.3049H4.02324C4.26441 12.3049 4.45974 12.1096 4.45974 11.8684C4.45974 11.6274 4.26441 11.4319 4.02324 11.4319H3.00194V8.56842H4.02324C4.26441 8.56842 4.45974 8.37294 4.45974 8.13191C4.45974 7.89074 4.26441 7.6954 4.02324 7.6954H3.00194V4.83191H4.02324C4.26441 4.83191 4.45974 4.63643 4.45974 4.3954C4.45974 4.15437 4.26441 3.95889 4.02324 3.95889H3.00194V3.01604C3.00399 2.29375 3.58918 1.70856 4.31147 1.70651H14.6262C15.3484 1.70856 15.9335 2.29375 15.9357 3.01604V16.9843Z" fill="#174291"/>
<path d="M9.46667 9.87378C10.6358 9.87378 11.5837 8.92601 11.5837 7.75671C11.5837 6.58742 10.6358 5.63965 9.46667 5.63965C8.29738 5.63965 7.34961 6.58742 7.34961 7.75671C7.3507 8.92546 8.29779 9.87268 9.46667 9.87378ZM9.46667 6.5083C10.1536 6.5083 10.7107 7.06539 10.7107 7.75235C10.7107 8.4393 10.1536 8.99639 9.46667 8.99639C8.77958 8.99639 8.22263 8.4393 8.22263 7.75235C8.22385 7.06594 8.77999 6.50953 9.46667 6.5083Z" fill="#174291"/>
<path d="M9.46656 10.5762C7.65069 10.5762 6.22754 12.0472 6.22754 13.9286C6.22822 14.1693 6.42329 14.3644 6.66405 14.3651H12.2689C12.5097 14.3644 12.7048 14.1693 12.7055 13.9286C12.7055 12.0472 11.2823 10.5762 9.46656 10.5762ZM7.13548 13.492C7.32331 12.3004 8.2618 11.4492 9.46656 11.4492C10.6712 11.4492 11.6142 12.3004 11.7975 13.492H7.13548Z" fill="#174291"/>
</svg>
