<svg width="20" height="20" viewBox="0 0 20 20" fill="none" xmlns="http://www.w3.org/2000/svg">
<path d="M11.25 7.49984H2.91667C2.68667 7.49984 2.5 7.31317 2.5 7.08317C2.5 6.85317 2.68667 6.6665 2.91667 6.6665H11.25C11.48 6.6665 11.6667 6.85317 11.6667 7.08317C11.6667 7.31317 11.48 7.49984 11.25 7.49984Z" fill="black"/>
<path d="M7.91667 10.8333H2.91667C2.68667 10.8333 2.5 10.6467 2.5 10.4167C2.5 10.1867 2.68667 10 2.91667 10H7.91667C8.14667 10 8.33333 10.1867 8.33333 10.4167C8.33333 10.6467 8.14667 10.8333 7.91667 10.8333Z" fill="black"/>
<path d="M7.08333 4.16683H2.91667C2.68667 4.16683 2.5 3.98016 2.5 3.75016C2.5 3.52016 2.68667 3.3335 2.91667 3.3335H7.08333C7.31333 3.3335 7.5 3.52016 7.5 3.75016C7.5 3.98016 7.31333 4.16683 7.08333 4.16683Z" fill="black"/>
<path d="M14.5833 17.4998C14.3533 17.4998 14.1666 17.3132 14.1666 17.0832V12.0832C14.1666 11.8532 14.3533 11.6665 14.5833 11.6665C14.8133 11.6665 15 11.8532 15 12.0832V17.0832C15 17.3132 14.8133 17.4998 14.5833 17.4998Z" fill="black"/>
<path d="M7.51667 17.5H2.08333C0.935 17.5 0 16.5658 0 15.4167V2.08333C0 0.934167 0.935 0 2.08333 0H12.0833C13.2317 0 14.1667 0.934167 14.1667 2.08333V7.13333C14.1667 7.36333 13.98 7.55 13.75 7.55C13.52 7.55 13.3333 7.36333 13.3333 7.13333V2.08333C13.3333 1.39417 12.7725 0.833333 12.0833 0.833333H2.08333C1.39417 0.833333 0.833333 1.39417 0.833333 2.08333V15.4167C0.833333 16.1058 1.39417 16.6667 2.08333 16.6667H7.51667C7.74667 16.6667 7.93333 16.8533 7.93333 17.0833C7.93333 17.3133 7.74667 17.5 7.51667 17.5Z" fill="black"/>
<path d="M14.5833 19.9998C11.5966 19.9998 9.16663 17.5698 9.16663 14.5832C9.16663 11.5965 11.5966 9.1665 14.5833 9.1665C17.57 9.1665 20 11.5965 20 14.5832C20 17.5698 17.57 19.9998 14.5833 19.9998ZM14.5833 9.99984C12.0558 9.99984 9.99996 12.0565 9.99996 14.5832C9.99996 17.1098 12.0558 19.1665 14.5833 19.1665C17.1108 19.1665 19.1666 17.1098 19.1666 14.5832C19.1666 12.0565 17.1108 9.99984 14.5833 9.99984Z" fill="black"/>
<path d="M17.0833 14.9998H12.0833C11.8533 14.9998 11.6666 14.8132 11.6666 14.5832C11.6666 14.3532 11.8533 14.1665 12.0833 14.1665H17.0833C17.3133 14.1665 17.5 14.3532 17.5 14.5832C17.5 14.8132 17.3133 14.9998 17.0833 14.9998Z" fill="black"/>
</svg>
