<svg width="14" height="14" viewBox="0 0 14 14" fill="none" xmlns="http://www.w3.org/2000/svg">
<path d="M5.86201 9.86216L4.33334 11.3908V1.00016C4.33334 0.823352 4.2631 0.653782 4.13808 0.528758C4.01306 0.403734 3.84349 0.333496 3.66668 0.333496C3.48986 0.333496 3.32029 0.403734 3.19527 0.528758C3.07025 0.653782 3.00001 0.823352 3.00001 1.00016V11.3908L1.47134 9.86216C1.34561 9.74072 1.17721 9.67353 1.00241 9.67505C0.827609 9.67657 0.660401 9.74668 0.536796 9.87028C0.41319 9.99389 0.343078 10.1611 0.341559 10.3359C0.34004 10.5107 0.407236 10.6791 0.528675 10.8048L3.19534 13.4715C3.32048 13.5963 3.48999 13.6664 3.66671 13.6664C3.84343 13.6664 4.01294 13.5963 4.13807 13.4715L6.80474 10.8048C6.92662 10.6792 6.99419 10.5106 6.99285 10.3356C6.99152 10.1605 6.92138 9.99302 6.79759 9.86925C6.67381 9.74547 6.5063 9.67534 6.33125 9.67402C6.1562 9.67269 5.98766 9.74027 5.86201 9.86216Z" fill="#141414"/>
<path d="M6.33333 3.00033H13C13.1768 3.00033 13.3464 2.93009 13.4714 2.80506C13.5964 2.68004 13.6667 2.51047 13.6667 2.33366C13.6667 2.15685 13.5964 1.98728 13.4714 1.86225C13.3464 1.73723 13.1768 1.66699 13 1.66699H6.33333C6.15652 1.66699 5.98695 1.73723 5.86193 1.86225C5.73691 1.98728 5.66667 2.15685 5.66667 2.33366C5.66667 2.51047 5.73691 2.68004 5.86193 2.80506C5.98695 2.93009 6.15652 3.00033 6.33333 3.00033Z" fill="#141414"/>
<path d="M13 4.3335H6.33333C6.15652 4.3335 5.98695 4.40373 5.86193 4.52876C5.73691 4.65378 5.66667 4.82335 5.66667 5.00016C5.66667 5.17697 5.73691 5.34654 5.86193 5.47157C5.98695 5.59659 6.15652 5.66683 6.33333 5.66683H13C13.1768 5.66683 13.3464 5.59659 13.4714 5.47157C13.5964 5.34654 13.6667 5.17697 13.6667 5.00016C13.6667 4.82335 13.5964 4.65378 13.4714 4.52876C13.3464 4.40373 13.1768 4.3335 13 4.3335Z" fill="#141414"/>
<path d="M11 7H6.33333C6.15652 7 5.98695 7.07024 5.86193 7.19526C5.73691 7.32029 5.66667 7.48986 5.66667 7.66667C5.66667 7.84348 5.73691 8.01305 5.86193 8.13807C5.98695 8.2631 6.15652 8.33333 6.33333 8.33333H11C11.1768 8.33333 11.3464 8.2631 11.4714 8.13807C11.5964 8.01305 11.6667 7.84348 11.6667 7.66667C11.6667 7.48986 11.5964 7.32029 11.4714 7.19526C11.3464 7.07024 11.1768 7 11 7Z" fill="#141414"/>
</svg>
