<svg width="18" height="22" viewBox="0 0 18 22" fill="none" xmlns="http://www.w3.org/2000/svg">
<path d="M1.10326 19.8H2.20332V20.8999C2.20332 21.5075 2.69579 22 3.30322 22H16.5034C17.1108 22 17.6033 21.5075 17.6033 20.8999V3.30003C17.6033 2.69243 17.1108 2.19997 16.5034 2.19997H15.4033V1.10007C15.4033 0.492462 14.9108 0 14.3032 0H4.03671C4.02966 0 4.02312 0.00369263 4.01607 0.00402832C3.9825 0.00587464 3.94926 0.0124206 3.91754 0.0238342C3.90663 0.0275269 3.89589 0.031723 3.88548 0.0365906C3.8447 0.0542145 3.80743 0.0790558 3.77554 0.10994L0.108932 3.77672C0.0782165 3.80777 0.0533753 3.84419 0.0355835 3.88414C0.0303802 3.89539 0.0275269 3.9068 0.0234985 3.91855C0.0129242 3.94893 0.00654603 3.98065 0.00469971 4.01288C0.00469971 4.02094 0 4.02782 0 4.03587V18.7C0 18.9924 0.116318 19.2727 0.323273 19.4789C0.530396 19.6854 0.811035 19.8009 1.10326 19.8ZM16.5034 2.93329C16.7058 2.93329 16.8699 3.09744 16.8699 3.30003V20.8999C16.8699 21.1025 16.7058 21.2667 16.5034 21.2667H3.30322C3.1008 21.2667 2.93665 21.1025 2.93665 20.8999V19.8H14.3032C14.9108 19.8 15.4033 19.3076 15.4033 18.7V2.93329H16.5034ZM14.67 1.10007V18.7C14.67 18.9026 14.5058 19.0667 14.3032 19.0667H1.10326C0.900833 19.0667 0.736679 18.9026 0.736679 18.7V4.39993H3.30322C3.91083 4.39993 4.40329 3.90747 4.40329 3.30003V0.733322H14.3032C14.5058 0.733322 14.67 0.897476 14.67 1.10007ZM3.66997 1.2518V3.30003C3.66997 3.50246 3.50581 3.66661 3.30322 3.66661H1.25516L3.66997 1.2518Z" fill="black"/>
<path fill-rule="evenodd" clip-rule="evenodd" d="M11.2028 7.19162C11.2723 7.28091 11.379 7.33311 11.4921 7.33311C11.6051 7.33311 11.7118 7.28091 11.7813 7.19162L13.4925 4.99165C13.6115 4.83169 13.5808 4.60594 13.4235 4.48358C13.2663 4.36105 13.0398 4.3869 12.914 4.54149L11.4921 6.36934L11.2926 6.11253C11.1682 5.95274 10.9377 5.92421 10.7779 6.04858C10.6182 6.17312 10.5896 6.40341 10.714 6.5632L11.2028 7.19162Z" fill="black"/>
<path fill-rule="evenodd" clip-rule="evenodd" d="M2.93657 5.8667H2.56982C2.3674 5.8667 2.20325 6.03085 2.20325 6.23328C2.20325 6.43587 2.3674 6.60002 2.56982 6.60002H2.93657C3.13899 6.60002 3.30315 6.43587 3.30315 6.23328C3.30315 6.03085 3.13899 5.8667 2.93657 5.8667Z" fill="black"/>
<path fill-rule="evenodd" clip-rule="evenodd" d="M4.4032 5.8667C4.20078 5.8667 4.03662 6.03085 4.03662 6.23328C4.03662 6.43587 4.20078 6.60002 4.4032 6.60002H8.80313C9.00572 6.60002 9.16988 6.43587 9.16988 6.23328C9.16988 6.03085 9.00572 5.8667 8.80313 5.8667H4.4032Z" fill="black"/>
<path fill-rule="evenodd" clip-rule="evenodd" d="M11.2028 10.4915C11.2723 10.5808 11.379 10.633 11.4921 10.633C11.6051 10.633 11.7119 10.5808 11.7813 10.4915L13.4925 8.2915C13.5765 8.18844 13.5981 8.04795 13.5489 7.92442C13.4999 7.80105 13.3878 7.71377 13.2559 7.69648C13.1241 7.67919 12.9934 7.73458 12.914 7.84116L11.4921 9.66901L11.2926 9.41238C11.2122 9.30898 11.0826 9.25645 10.9528 9.27458C10.8231 9.29253 10.7128 9.37847 10.6635 9.49983C10.6143 9.62118 10.6334 9.75965 10.714 9.86305L11.2028 10.4915Z" fill="black"/>
<path fill-rule="evenodd" clip-rule="evenodd" d="M2.93657 9.1665H2.56982C2.3674 9.1665 2.20325 9.33066 2.20325 9.53325C2.20325 9.73567 2.3674 9.89983 2.56982 9.89983H2.93657C3.13899 9.89983 3.30315 9.73567 3.30315 9.53325C3.30315 9.33066 3.13899 9.1665 2.93657 9.1665Z" fill="black"/>
<path fill-rule="evenodd" clip-rule="evenodd" d="M8.80313 9.1665H4.4032C4.20078 9.1665 4.03662 9.33066 4.03662 9.53325C4.03662 9.73567 4.20078 9.89983 4.4032 9.89983H8.80313C9.00572 9.89983 9.16988 9.73567 9.16988 9.53325C9.16988 9.33066 9.00572 9.1665 8.80313 9.1665Z" fill="black"/>
<path fill-rule="evenodd" clip-rule="evenodd" d="M11.2028 13.7918C11.2723 13.8811 11.379 13.9331 11.4921 13.9331C11.6051 13.9331 11.7118 13.8811 11.7813 13.7918L13.4925 11.5918C13.5765 11.4887 13.5981 11.3482 13.5489 11.2247C13.4999 11.1012 13.3878 11.0141 13.2559 10.9968C13.1241 10.9795 12.9934 11.0349 12.914 11.1415L11.4921 12.9693L11.2926 12.7127C11.1682 12.5529 10.9377 12.5242 10.7779 12.6487C10.6182 12.7731 10.5896 13.0035 10.714 13.1633L11.2028 13.7918Z" fill="black"/>
<path fill-rule="evenodd" clip-rule="evenodd" d="M2.93657 12.4663H2.56982C2.3674 12.4663 2.20325 12.6305 2.20325 12.8331C2.20325 13.0355 2.3674 13.1996 2.56982 13.1996H2.93657C3.13899 13.1996 3.30315 13.0355 3.30315 12.8331C3.30315 12.6305 3.13899 12.4663 2.93657 12.4663Z" fill="black"/>
<path fill-rule="evenodd" clip-rule="evenodd" d="M8.80313 12.4663H4.4032C4.20078 12.4663 4.03662 12.6305 4.03662 12.8331C4.03662 13.0355 4.20078 13.1996 4.4032 13.1996H8.80313C9.00572 13.1996 9.16988 13.0355 9.16988 12.8331C9.16988 12.6305 9.00572 12.4663 8.80313 12.4663Z" fill="black"/>
<path fill-rule="evenodd" clip-rule="evenodd" d="M11.2028 17.0917C11.2723 17.1808 11.379 17.233 11.4921 17.233C11.6051 17.233 11.7118 17.1808 11.7813 17.0917L13.4925 14.8918C13.5765 14.7887 13.5981 14.6482 13.5489 14.5247C13.4999 14.4011 13.3878 14.3139 13.2559 14.2966C13.1241 14.2793 12.9934 14.3348 12.914 14.4414L11.4921 16.2693L11.2926 16.0126C11.1682 15.8528 10.9377 15.8241 10.7779 15.9487C10.6182 16.0731 10.5896 16.3035 10.714 16.4633L11.2028 17.0917Z" fill="black"/>
<path fill-rule="evenodd" clip-rule="evenodd" d="M2.93657 15.7666H2.56982C2.3674 15.7666 2.20325 15.9308 2.20325 16.1332C2.20325 16.3358 2.3674 16.4999 2.56982 16.4999H2.93657C3.13899 16.4999 3.30315 16.3358 3.30315 16.1332C3.30315 15.9308 3.13899 15.7666 2.93657 15.7666Z" fill="black"/>
<path fill-rule="evenodd" clip-rule="evenodd" d="M8.80313 15.7666H4.4032C4.20078 15.7666 4.03662 15.9308 4.03662 16.1332C4.03662 16.3358 4.20078 16.4999 4.4032 16.4999H8.80313C9.00572 16.4999 9.16988 16.3358 9.16988 16.1332C9.16988 15.9308 9.00572 15.7666 8.80313 15.7666Z" fill="black"/>
</svg>
