<svg width="20" height="20" viewBox="0 0 20 20" fill="none" xmlns="http://www.w3.org/2000/svg">
<path d="M18.2142 12.857V12.4999C18.2142 12.121 18.0637 11.7576 17.7958 11.4897C17.5279 11.2218 17.1645 11.0713 16.7857 11.0713H14.6428C14.2639 11.0713 13.9006 11.2218 13.6327 11.4897C13.3647 11.7576 13.2142 12.121 13.2142 12.4999V12.857H13.9285V12.4999C13.9285 12.3104 14.0038 12.1287 14.1377 11.9948C14.2717 11.8608 14.4534 11.7856 14.6428 11.7856H16.7857C16.9751 11.7856 17.1568 11.8608 17.2907 11.9948C17.4247 12.1287 17.4999 12.3104 17.4999 12.4999V12.857H18.2142Z" fill="#174291"/>
<path d="M10.6129 11.1883C10.8734 11.0113 11.0954 10.7833 11.2652 10.518C11.4351 10.2528 11.5494 9.95579 11.6011 9.64509L11.7907 8.51259C11.8047 8.42926 11.8477 8.35357 11.9122 8.29897C11.9767 8.24437 12.0584 8.2144 12.1429 8.21437C12.3323 8.21437 12.514 8.13912 12.648 8.00516C12.7819 7.87121 12.8572 7.68953 12.8572 7.50009C12.8572 7.31065 12.7819 7.12896 12.648 6.99501C12.514 6.86106 12.3323 6.7858 12.1429 6.7858C12.0482 6.7858 11.9573 6.74817 11.8904 6.6812C11.8234 6.61422 11.7857 6.52338 11.7857 6.42866C11.8066 6.201 11.7483 5.97312 11.6207 5.78342C11.4932 5.59372 11.3041 5.4538 11.0854 5.38723C9.987 5.24734 8.92873 4.8847 7.97539 4.32151C7.94047 4.29813 7.89939 4.28564 7.85736 4.28564C7.81533 4.28564 7.77424 4.29813 7.73932 4.32151C6.78579 4.88485 5.72726 5.2475 4.62861 5.38723C4.40997 5.45387 4.22099 5.59382 4.09349 5.78351C3.96598 5.97321 3.90775 6.20105 3.92861 6.42866C3.92861 6.52338 3.89098 6.61422 3.824 6.6812C3.75702 6.74817 3.66618 6.7858 3.57146 6.7858C3.38202 6.7858 3.20034 6.86106 3.06639 6.99501C2.93243 7.12896 2.85718 7.31065 2.85718 7.50009C2.85718 7.68953 2.93243 7.87121 3.06639 8.00516C3.20034 8.13912 3.38202 8.21437 3.57146 8.21437C3.65595 8.2144 3.73769 8.24437 3.80216 8.29897C3.86664 8.35357 3.90967 8.42926 3.92361 8.51259L4.11325 9.64473C4.16495 9.9555 4.27919 10.2525 4.44905 10.5179C4.61891 10.7832 4.84087 11.0113 5.10146 11.1883C5.20539 11.2597 5.31575 11.3369 5.43396 11.4197C6.11682 11.9008 6.96646 12.5001 7.85718 12.5001C8.74789 12.5001 9.59754 11.9008 10.2804 11.4197C10.3975 11.3369 10.509 11.2587 10.6129 11.1883Z" fill="#174291"/>
<path d="M6.42859 12.8618C6.42859 13.2407 6.5791 13.6041 6.84701 13.872C7.11492 14.1399 7.47828 14.2904 7.85716 14.2904C8.23604 14.2904 8.5994 14.1399 8.86731 13.872C9.13522 13.6041 9.28573 13.2407 9.28573 12.8618C8.84095 13.0821 8.35336 13.2024 7.85716 13.2143C7.36096 13.2024 6.87337 13.0821 6.42859 12.8618Z" fill="#174291"/>
<path d="M19.6429 13.5713H11.7857C11.5885 13.5713 11.4286 13.7312 11.4286 13.9284V15.7141C11.4286 15.9114 11.5885 16.0713 11.7857 16.0713H19.6429C19.8401 16.0713 20 15.9114 20 15.7141V13.9284C20 13.7312 19.8401 13.5713 19.6429 13.5713Z" fill="#174291"/>
<path d="M16.0714 17.4999C16.1661 17.4999 16.257 17.4623 16.324 17.3953C16.3909 17.3283 16.4286 17.2375 16.4286 17.1428V16.7856H15V17.1428C15 17.2375 15.0376 17.3283 15.1046 17.3953C15.1716 17.4623 15.2624 17.4999 15.3571 17.4999H16.0714Z" fill="#174291"/>
<path d="M0.357143 19.9999H10.78C10.7377 19.8855 10.7155 19.7647 10.7143 19.6427V13.9285C10.7158 13.8177 10.7347 13.7079 10.7704 13.6031L9.945 13.332C9.83776 13.8056 9.57268 14.2287 9.19329 14.5318C8.8139 14.8349 8.34274 15 7.85714 15C7.37155 15 6.90038 14.8349 6.52099 14.5318C6.1416 14.2287 5.87653 13.8056 5.76929 13.332L2.6575 14.3535C0.943929 14.917 0 16.6685 0 19.2856V19.6427C0 19.7375 0.0376274 19.8283 0.104605 19.8953C0.171582 19.9623 0.262423 19.9999 0.357143 19.9999Z" fill="#174291"/>
<path d="M2.85718 5V6.2675C2.97596 6.19677 3.10447 6.14383 3.23861 6.11036C3.27358 5.76586 3.41742 5.44147 3.64926 5.18427C3.8811 4.92706 4.18886 4.75043 4.52789 4.68C5.52715 4.5541 6.49029 4.22601 7.35861 3.71571C7.50761 3.62088 7.68056 3.57051 7.85718 3.57051C8.03379 3.57051 8.20675 3.62088 8.35575 3.71571C9.22402 4.22582 10.187 4.55391 11.1861 4.68C11.5252 4.75036 11.833 4.92697 12.065 5.18418C12.2969 5.44138 12.4408 5.76581 12.4757 6.11036C12.6099 6.14383 12.7384 6.19677 12.8572 6.2675V5C12.8572 3.67392 12.3304 2.40215 11.3927 1.46447C10.455 0.526784 9.18326 0 7.85718 0C6.5311 0 5.25933 0.526784 4.32164 1.46447C3.38396 2.40215 2.85718 3.67392 2.85718 5Z" fill="#174291"/>
<path d="M20 16.7202C19.8856 16.7625 19.7648 16.7847 19.6429 16.7859H17.1429V17.1431C17.1429 17.4272 17.03 17.6998 16.8291 17.9007C16.6281 18.1016 16.3556 18.2145 16.0714 18.2145H15.3572C15.073 18.2145 14.8005 18.1016 14.5995 17.9007C14.3986 17.6998 14.2857 17.4272 14.2857 17.1431V16.7859H11.7857C11.6638 16.7847 11.543 16.7625 11.4286 16.7202V19.6431C11.4286 19.7378 11.4662 19.8286 11.5332 19.8956C11.6002 19.9626 11.691 20.0002 11.7857 20.0002H19.6429C19.7376 20.0002 19.8284 19.9626 19.8954 19.8956C19.9624 19.8286 20 19.7378 20 19.6431V16.7202Z" fill="#174291"/>
</svg>
