<svg width="18" height="18" viewBox="0 0 18 18" fill="none" xmlns="http://www.w3.org/2000/svg">
<path d="M8.58329 15.8854H1.45829C1.41413 15.8854 1.37163 15.8671 1.34079 15.8363C1.30913 15.8046 1.29163 15.7629 1.29163 15.7188V14.5096C1.29163 13.8179 1.78579 13.2079 2.54746 12.6896C3.90746 11.7613 6.10829 11.1763 8.58329 11.1763C8.92829 11.1763 9.20829 10.8963 9.20829 10.5513C9.20829 10.2071 8.92829 9.92627 8.58329 9.92627C5.81496 9.92627 3.36413 10.6188 1.84246 11.6563C0.681626 12.4479 0.041626 13.4538 0.041626 14.5096V15.7188C0.041626 16.0938 0.190793 16.4546 0.456626 16.7204C0.722459 16.9854 1.08246 17.1354 1.45829 17.1354H8.58329C8.92829 17.1346 9.20829 16.8546 9.20829 16.5096C9.20829 16.1654 8.92829 15.8846 8.58329 15.8854Z" fill="black"/>
<path d="M8.58329 15.8854H1.45829C1.41413 15.8854 1.37163 15.8671 1.34079 15.8363C1.30913 15.8046 1.29163 15.7629 1.29163 15.7188V14.5096C1.29163 13.8179 1.78579 13.2079 2.54746 12.6896C3.90746 11.7613 6.10829 11.1763 8.58329 11.1763C8.92829 11.1763 9.20829 10.8963 9.20829 10.5513C9.20829 10.2071 8.92829 9.92627 8.58329 9.92627C5.81496 9.92627 3.36413 10.6188 1.84246 11.6563C0.681626 12.4479 0.041626 13.4538 0.041626 14.5096V15.7188C0.041626 16.0938 0.190793 16.4546 0.456626 16.7204C0.722459 16.9854 1.08246 17.1354 1.45829 17.1354H8.58329C8.92829 17.1346 9.20829 16.8546 9.20829 16.5096C9.20829 16.1654 8.92829 15.8846 8.58329 15.8854Z" stroke="black"/>
<path d="M8.58333 0.0415039C6.05333 0.0415039 4 2.09484 4 4.62484C4 7.15484 6.05333 9.20817 8.58333 9.20817C11.1133 9.20817 13.1667 7.15484 13.1667 4.62484C13.1667 2.09484 11.1133 0.0415039 8.58333 0.0415039ZM8.58333 1.2915C10.4233 1.2915 11.9167 2.78484 11.9167 4.62484C11.9167 6.46484 10.4233 7.95817 8.58333 7.95817C6.74333 7.95817 5.25 6.46484 5.25 4.62484C5.25 2.78484 6.74333 1.2915 8.58333 1.2915Z" fill="black"/>
<path d="M8.58333 0.0415039C6.05333 0.0415039 4 2.09484 4 4.62484C4 7.15484 6.05333 9.20817 8.58333 9.20817C11.1133 9.20817 13.1667 7.15484 13.1667 4.62484C13.1667 2.09484 11.1133 0.0415039 8.58333 0.0415039ZM8.58333 1.2915C10.4233 1.2915 11.9167 2.78484 11.9167 4.62484C11.9167 6.46484 10.4233 7.95817 8.58333 7.95817C6.74333 7.95817 5.25 6.46484 5.25 4.62484C5.25 2.78484 6.74333 1.2915 8.58333 1.2915Z" stroke="black"/>
<path d="M13.5833 10.6147C11.945 10.6147 10.615 11.9447 10.615 13.5831C10.615 15.2214 11.945 16.5522 13.5833 16.5522C15.2217 16.5522 16.5525 15.2214 16.5525 13.5831C16.5525 11.9447 15.2217 10.6147 13.5833 10.6147ZM13.5833 11.8647C14.5317 11.8647 15.3025 12.6347 15.3025 13.5831C15.3025 14.5314 14.5317 15.3022 13.5833 15.3022C12.635 15.3022 11.8642 14.5314 11.8642 13.5831C11.8642 12.6347 12.635 11.8647 13.5833 11.8647Z" fill="black"/>
<path d="M13.5833 10.6147C11.945 10.6147 10.615 11.9447 10.615 13.5831C10.615 15.2214 11.945 16.5522 13.5833 16.5522C15.2217 16.5522 16.5525 15.2214 16.5525 13.5831C16.5525 11.9447 15.2217 10.6147 13.5833 10.6147ZM13.5833 11.8647C14.5317 11.8647 15.3025 12.6347 15.3025 13.5831C15.3025 14.5314 14.5317 15.3022 13.5833 15.3022C12.635 15.3022 11.8642 14.5314 11.8642 13.5831C11.8642 12.6347 12.635 11.8647 13.5833 11.8647Z" stroke="black"/>
<path d="M14.2083 11.2388V9.83301C14.2083 9.48801 13.9283 9.20801 13.5833 9.20801C13.2383 9.20801 12.9583 9.48801 12.9583 9.83301V11.2397C12.9583 11.5838 13.2383 11.8647 13.5833 11.8647C13.9283 11.8638 14.2083 11.5838 14.2083 11.2388Z" fill="black"/>
<path d="M14.2083 11.2388V9.83301C14.2083 9.48801 13.9283 9.20801 13.5833 9.20801C13.2383 9.20801 12.9583 9.48801 12.9583 9.83301V11.2397C12.9583 11.5838 13.2383 11.8647 13.5833 11.8647C13.9283 11.8638 14.2083 11.5838 14.2083 11.2388Z" stroke="black"/>
<path d="M15.6825 12.3681L16.6767 11.3731C16.9208 11.1298 16.9208 10.7331 16.6767 10.4898C16.4333 10.2456 16.0367 10.2456 15.7933 10.4898L14.7983 11.4839C14.555 11.7281 14.555 12.1239 14.7983 12.3681C15.0425 12.6114 15.4383 12.6114 15.6825 12.3681Z" fill="black"/>
<path d="M15.6825 12.3681L16.6767 11.3731C16.9208 11.1298 16.9208 10.7331 16.6767 10.4898C16.4333 10.2456 16.0367 10.2456 15.7933 10.4898L14.7983 11.4839C14.555 11.7281 14.555 12.1239 14.7983 12.3681C15.0425 12.6114 15.4383 12.6114 15.6825 12.3681Z" stroke="black"/>
<path d="M15.9267 14.208H17.3333C17.6783 14.208 17.9583 13.928 17.9583 13.583C17.9583 13.238 17.6783 12.958 17.3333 12.958H15.9267C15.5825 12.958 15.3025 13.238 15.3025 13.583C15.3017 13.928 15.5825 14.208 15.9267 14.208Z" fill="black"/>
<path d="M15.9267 14.208H17.3333C17.6783 14.208 17.9583 13.928 17.9583 13.583C17.9583 13.238 17.6783 12.958 17.3333 12.958H15.9267C15.5825 12.958 15.3025 13.238 15.3025 13.583C15.3017 13.928 15.5825 14.208 15.9267 14.208Z" stroke="black"/>
<path d="M14.7983 15.6824L15.7933 16.6766C16.0367 16.9207 16.4333 16.9207 16.6767 16.6766C16.9208 16.4332 16.9208 16.0366 16.6767 15.7932L15.6825 14.7982C15.4383 14.5549 15.0425 14.5549 14.7983 14.7982C14.555 15.0424 14.555 15.4382 14.7983 15.6824Z" fill="black"/>
<path d="M14.7983 15.6824L15.7933 16.6766C16.0367 16.9207 16.4333 16.9207 16.6767 16.6766C16.9208 16.4332 16.9208 16.0366 16.6767 15.7932L15.6825 14.7982C15.4383 14.5549 15.0425 14.5549 14.7983 14.7982C14.555 15.0424 14.555 15.4382 14.7983 15.6824Z" stroke="black"/>
<path d="M12.9583 15.9263V17.3329C12.9583 17.6779 13.2383 17.9579 13.5833 17.9579C13.9283 17.9579 14.2083 17.6779 14.2083 17.3329V15.9263C14.2083 15.5821 13.9283 15.3021 13.5833 15.3013C13.2383 15.3013 12.9583 15.5821 12.9583 15.9263Z" fill="black"/>
<path d="M12.9583 15.9263V17.3329C12.9583 17.6779 13.2383 17.9579 13.5833 17.9579C13.9283 17.9579 14.2083 17.6779 14.2083 17.3329V15.9263C14.2083 15.5821 13.9283 15.3021 13.5833 15.3013C13.2383 15.3013 12.9583 15.5821 12.9583 15.9263Z" stroke="black"/>
<path d="M11.4842 14.7982L10.49 15.7932C10.2458 16.0366 10.2458 16.4332 10.49 16.6766C10.7333 16.9207 11.13 16.9207 11.3733 16.6766L12.3683 15.6824C12.6117 15.4382 12.6117 15.0424 12.3683 14.7982C12.1242 14.5549 11.7283 14.5549 11.4842 14.7982Z" fill="black"/>
<path d="M11.4842 14.7982L10.49 15.7932C10.2458 16.0366 10.2458 16.4332 10.49 16.6766C10.7333 16.9207 11.13 16.9207 11.3733 16.6766L12.3683 15.6824C12.6117 15.4382 12.6117 15.0424 12.3683 14.7982C12.1242 14.5549 11.7283 14.5549 11.4842 14.7982Z" stroke="black"/>
<path d="M11.2391 12.958H9.83325C9.48825 12.958 9.20825 13.238 9.20825 13.583C9.20825 13.928 9.48825 14.208 9.83325 14.208H11.2391C11.5841 14.208 11.8649 13.928 11.8641 13.583C11.8641 13.238 11.5841 12.958 11.2391 12.958Z" fill="black"/>
<path d="M11.2391 12.958H9.83325C9.48825 12.958 9.20825 13.238 9.20825 13.583C9.20825 13.928 9.48825 14.208 9.83325 14.208H11.2391C11.5841 14.208 11.8649 13.928 11.8641 13.583C11.8641 13.238 11.5841 12.958 11.2391 12.958Z" stroke="black"/>
<path d="M12.3683 11.4839L11.3733 10.4898C11.13 10.2456 10.7333 10.2456 10.49 10.4898C10.2458 10.7331 10.2458 11.1298 10.49 11.3731L11.4842 12.3681C11.7283 12.6114 12.1242 12.6114 12.3683 12.3681C12.6117 12.1239 12.6117 11.7281 12.3683 11.4839Z" fill="black"/>
<path d="M12.3683 11.4839L11.3733 10.4898C11.13 10.2456 10.7333 10.2456 10.49 10.4898C10.2458 10.7331 10.2458 11.1298 10.49 11.3731L11.4842 12.3681C11.7283 12.6114 12.1242 12.6114 12.3683 12.3681C12.6117 12.1239 12.6117 11.7281 12.3683 11.4839Z" stroke="black"/>
</svg>
