<svg width="24" height="24" viewBox="0 0 24 24" fill="none" xmlns="http://www.w3.org/2000/svg">
<path d="M7.03601 7.125H6.52734C6.25521 7.12525 5.99429 7.23345 5.80184 7.42586C5.60939 7.61827 5.50115 7.87917 5.50085 8.15131V9.95636C5.50115 10.2285 5.60939 10.4894 5.80184 10.6818C5.99429 10.8742 6.25521 10.9824 6.52734 10.9827H7.03601C7.30809 10.9823 7.56892 10.8741 7.76129 10.6817C7.95366 10.4893 8.06185 10.2284 8.06212 9.95636V8.15131C8.06185 7.87923 7.95366 7.61837 7.76129 7.42597C7.56892 7.23356 7.30809 7.12532 7.03601 7.125ZM7.31213 9.95636C7.29822 10.3536 6.77894 10.2066 6.52734 10.2327C6.45407 10.2326 6.38381 10.2035 6.33199 10.1517C6.28016 10.0999 6.25098 10.0296 6.25085 9.95636V8.15131C6.26494 7.75418 6.78439 7.90105 7.03601 7.87499C7.10925 7.87509 7.17945 7.90424 7.23122 7.95604C7.28299 8.00785 7.31208 8.07807 7.31213 8.15131V9.95636Z" fill="#141414"/>
<path d="M22.5 9.05256C22.4989 8.44767 22.2809 7.86323 21.8856 7.4054C21.4903 6.94756 20.9438 6.64669 20.3456 6.55742V2.56055C20.3456 2.5113 20.3359 2.46253 20.3171 2.41703C20.2982 2.37152 20.2706 2.33018 20.2358 2.29535C20.2009 2.26053 20.1596 2.23291 20.1141 2.21407C20.0686 2.19522 20.0198 2.18553 19.9706 2.18555H17.8326C17.78 2.19121 15.0264 3.42957 15.0264 3.42957C12.023 4.80601 8.75736 5.51617 5.45363 5.51129C5.07262 5.51246 4.70126 5.63121 4.39028 5.85134C4.0793 6.07147 3.84386 6.38224 3.71613 6.74119H2.68067C2.36764 6.74155 2.06753 6.86605 1.84619 7.0874C1.62485 7.30874 1.50035 7.60885 1.5 7.92188V10.1907C1.50035 10.5037 1.62486 10.8038 1.84621 11.0251C2.06755 11.2465 2.36766 11.3709 2.68067 11.3712H3.71775C3.84626 11.729 4.08182 12.0384 4.3924 12.2576C4.70298 12.4767 5.07352 12.5949 5.45363 12.596C5.79784 12.596 6.14018 12.6082 6.48201 12.6232L5.11158 20.5415C5.08675 20.6974 5.09579 20.8569 5.13807 21.009C5.18036 21.1611 5.2549 21.3023 5.35664 21.4231C5.45837 21.5438 5.58491 21.6412 5.72765 21.7087C5.87039 21.7762 6.02599 21.8121 6.18386 21.8141H8.43055C8.68565 21.8115 8.93192 21.7204 9.12729 21.5563C9.32266 21.3923 9.455 21.1655 9.50171 20.9147L10.0455 17.9211H10.7963C11.0468 17.9208 11.287 17.8211 11.4641 17.644C11.6412 17.4668 11.7408 17.2266 11.7411 16.9761V15.8886C11.7375 15.747 11.7035 15.6078 11.6412 15.4806C11.579 15.3534 11.49 15.2411 11.3804 15.1514C11.2708 15.0617 11.1431 14.9967 11.0061 14.9608C10.8691 14.925 10.7259 14.9191 10.5864 14.9436L10.8937 13.2519C12.3133 13.5952 13.6971 14.0726 15.0264 14.6777C15.0264 14.6777 17.7766 15.9226 17.8326 15.9217H19.9706C20.0198 15.9218 20.0686 15.9121 20.1141 15.8932C20.1596 15.8744 20.2009 15.8468 20.2358 15.8119C20.2706 15.7771 20.2982 15.7358 20.317 15.6903C20.3359 15.6448 20.3456 15.596 20.3456 15.5467V11.5479C20.9439 11.4586 21.4903 11.1577 21.8856 10.6998C22.2809 10.2419 22.4989 9.65747 22.5 9.05256ZM2.25 10.1907V7.92188C2.2494 7.86515 2.26012 7.80888 2.28155 7.75635C2.30298 7.70383 2.33468 7.65611 2.37479 7.616C2.4149 7.57588 2.46262 7.54418 2.51514 7.52275C2.56767 7.50132 2.62394 7.49059 2.68067 7.49119H3.60058V10.6212H2.68067C2.56652 10.6211 2.4571 10.5757 2.37637 10.495C2.29564 10.4143 2.2502 10.3049 2.25 10.1907ZM10.7963 15.6936C10.8479 15.6937 10.8974 15.7143 10.934 15.7509C10.9705 15.7874 10.991 15.8369 10.9911 15.8886V16.9761C10.9904 17.0275 10.9696 17.0767 10.9333 17.1131C10.8969 17.1495 10.8477 17.1703 10.7963 17.1711H10.1818L10.4502 15.6936L10.7963 15.6936ZM8.7645 20.7757C8.74995 20.8546 8.70893 20.9262 8.64821 20.9786C8.58748 21.031 8.51069 21.0612 8.43052 21.0641H6.18384C6.13478 21.0633 6.08647 21.0519 6.04218 21.0309C5.99788 21.0098 5.95862 20.9794 5.92706 20.9419C5.89551 20.9043 5.87238 20.8604 5.85925 20.8131C5.84612 20.7658 5.84329 20.7163 5.85095 20.6679L7.23472 12.6718C8.21828 12.7455 9.19603 12.8828 10.1619 13.0828L8.7645 20.7757ZM5.45363 11.846C5.16116 11.8457 4.88078 11.7293 4.67399 11.5225C4.4672 11.3157 4.35089 11.0353 4.35058 10.7428V7.36432C4.35089 7.07187 4.4672 6.79149 4.674 6.5847C4.88079 6.37791 5.16117 6.2616 5.45361 6.26129C8.86478 6.2663 12.2366 5.53302 15.3376 4.11182L17.4576 3.14394V14.9634L15.3376 13.9955C12.2366 12.5743 8.86479 11.841 5.45363 11.846ZM19.5956 15.1718H18.2076V2.93555H19.5956V15.1718ZM20.3456 10.7878V7.31744C20.74 7.40563 21.0926 7.62556 21.3453 7.94098C21.598 8.2564 21.7357 8.64849 21.7357 9.05264C21.7357 9.4568 21.598 9.84889 21.3453 10.1643C21.0926 10.4797 20.74 10.6997 20.3456 10.7878Z" fill="#141414"/>
</svg>
