<svg width="21" height="21" viewBox="0 0 21 21" fill="none" xmlns="http://www.w3.org/2000/svg">
<path d="M20.7364 5.06167L10.7136 0.0502928C10.5793 -0.0167643 10.4208 -0.0167643 10.2867 0.0502928L0.263933 5.06167C0.102137 5.14257 0 5.30771 0 5.48859V15.5113C0 15.6922 0.102137 15.8574 0.263694 15.9383L10.2865 20.9496C10.3537 20.9833 10.4268 21 10.5 21C10.5733 21 10.6463 20.9833 10.7136 20.9496L20.7364 15.9383C20.8979 15.8574 21.0001 15.6922 21.0001 15.5113V5.48859C21.0001 5.30771 20.8979 5.14257 20.7364 5.06167ZM10.5 1.01081L19.4556 5.48859L17.5398 6.44648L8.58449 1.9687L10.5 1.01081ZM13.7216 8.35558L4.76606 3.87779L7.51707 2.50229L16.4726 6.98007L13.7216 8.35558ZM14.0796 9.24378L16.9432 7.81196V11.3622L16.0273 10.7081C15.9235 10.6338 15.7937 10.6045 15.668 10.6262C15.5422 10.6484 15.4303 10.7198 15.3575 10.8248L14.0796 12.6711V9.24378ZM3.69887 4.41138L12.6542 8.88917L10.5 9.96638L1.54446 5.48859L3.69887 4.41138ZM0.954548 6.26082L10.0228 10.7949V19.7503L0.954548 15.2162V6.26082ZM10.9773 19.7505V10.7949L13.125 9.72106V14.1988C13.125 14.4077 13.2606 14.5921 13.4598 14.6544C13.5071 14.6692 13.5548 14.6761 13.6023 14.6761C13.756 14.6761 13.9039 14.6017 13.9949 14.4707L15.867 11.7667L17.1434 12.6782C17.289 12.7821 17.4804 12.7961 17.6391 12.714C17.7978 12.6324 17.8978 12.4685 17.8978 12.2897V7.33469L20.0455 6.26082V15.2162L10.9773 19.7505Z" fill="black"/>
</svg>
