<svg width="20" height="20" viewBox="0 0 20 20" fill="none" xmlns="http://www.w3.org/2000/svg">
<path d="M9.58329 16.8854H2.45829C2.41413 16.8854 2.37163 16.8671 2.34079 16.8363C2.30913 16.8046 2.29163 16.7629 2.29163 16.7188V15.5096C2.29163 14.8179 2.78579 14.2079 3.54746 13.6896C4.90746 12.7613 7.10829 12.1763 9.58329 12.1763C9.92829 12.1763 10.2083 11.8963 10.2083 11.5513C10.2083 11.2071 9.92829 10.9263 9.58329 10.9263C6.81496 10.9263 4.36413 11.6188 2.84246 12.6563C1.68163 13.4479 1.04163 14.4538 1.04163 15.5096V16.7188C1.04163 17.0938 1.19079 17.4546 1.45663 17.7204C1.72246 17.9854 2.08246 18.1354 2.45829 18.1354H9.58329C9.92829 18.1346 10.2083 17.8546 10.2083 17.5096C10.2083 17.1654 9.92829 16.8846 9.58329 16.8854Z" fill="black"/>
<path d="M9.58329 16.8854H2.45829C2.41413 16.8854 2.37163 16.8671 2.34079 16.8363C2.30913 16.8046 2.29163 16.7629 2.29163 16.7188V15.5096C2.29163 14.8179 2.78579 14.2079 3.54746 13.6896C4.90746 12.7613 7.10829 12.1763 9.58329 12.1763C9.92829 12.1763 10.2083 11.8963 10.2083 11.5513C10.2083 11.2071 9.92829 10.9263 9.58329 10.9263C6.81496 10.9263 4.36413 11.6188 2.84246 12.6563C1.68163 13.4479 1.04163 14.4538 1.04163 15.5096V16.7188C1.04163 17.0938 1.19079 17.4546 1.45663 17.7204C1.72246 17.9854 2.08246 18.1354 2.45829 18.1354H9.58329C9.92829 18.1346 10.2083 17.8546 10.2083 17.5096C10.2083 17.1654 9.92829 16.8846 9.58329 16.8854Z" stroke="black"/>
<path d="M9.58333 1.0415C7.05333 1.0415 5 3.09484 5 5.62484C5 8.15484 7.05333 10.2082 9.58333 10.2082C12.1133 10.2082 14.1667 8.15484 14.1667 5.62484C14.1667 3.09484 12.1133 1.0415 9.58333 1.0415ZM9.58333 2.2915C11.4233 2.2915 12.9167 3.78484 12.9167 5.62484C12.9167 7.46484 11.4233 8.95817 9.58333 8.95817C7.74333 8.95817 6.25 7.46484 6.25 5.62484C6.25 3.78484 7.74333 2.2915 9.58333 2.2915Z" fill="black"/>
<path d="M9.58333 1.0415C7.05333 1.0415 5 3.09484 5 5.62484C5 8.15484 7.05333 10.2082 9.58333 10.2082C12.1133 10.2082 14.1667 8.15484 14.1667 5.62484C14.1667 3.09484 12.1133 1.0415 9.58333 1.0415ZM9.58333 2.2915C11.4233 2.2915 12.9167 3.78484 12.9167 5.62484C12.9167 7.46484 11.4233 8.95817 9.58333 8.95817C7.74333 8.95817 6.25 7.46484 6.25 5.62484C6.25 3.78484 7.74333 2.2915 9.58333 2.2915Z" stroke="black"/>
<path d="M14.5833 11.6147C12.945 11.6147 11.615 12.9447 11.615 14.5831C11.615 16.2214 12.945 17.5522 14.5833 17.5522C16.2217 17.5522 17.5525 16.2214 17.5525 14.5831C17.5525 12.9447 16.2217 11.6147 14.5833 11.6147ZM14.5833 12.8647C15.5317 12.8647 16.3025 13.6347 16.3025 14.5831C16.3025 15.5314 15.5317 16.3022 14.5833 16.3022C13.635 16.3022 12.8642 15.5314 12.8642 14.5831C12.8642 13.6347 13.635 12.8647 14.5833 12.8647Z" fill="black"/>
<path d="M14.5833 11.6147C12.945 11.6147 11.615 12.9447 11.615 14.5831C11.615 16.2214 12.945 17.5522 14.5833 17.5522C16.2217 17.5522 17.5525 16.2214 17.5525 14.5831C17.5525 12.9447 16.2217 11.6147 14.5833 11.6147ZM14.5833 12.8647C15.5317 12.8647 16.3025 13.6347 16.3025 14.5831C16.3025 15.5314 15.5317 16.3022 14.5833 16.3022C13.635 16.3022 12.8642 15.5314 12.8642 14.5831C12.8642 13.6347 13.635 12.8647 14.5833 12.8647Z" stroke="black"/>
<path d="M15.2083 12.2388V10.833C15.2083 10.488 14.9283 10.208 14.5833 10.208C14.2383 10.208 13.9583 10.488 13.9583 10.833V12.2397C13.9583 12.5838 14.2383 12.8647 14.5833 12.8647C14.9283 12.8638 15.2083 12.5838 15.2083 12.2388Z" fill="black"/>
<path d="M15.2083 12.2388V10.833C15.2083 10.488 14.9283 10.208 14.5833 10.208C14.2383 10.208 13.9583 10.488 13.9583 10.833V12.2397C13.9583 12.5838 14.2383 12.8647 14.5833 12.8647C14.9283 12.8638 15.2083 12.5838 15.2083 12.2388Z" stroke="black"/>
<path d="M16.6825 13.3681L17.6767 12.3731C17.9208 12.1298 17.9208 11.7331 17.6767 11.4898C17.4333 11.2456 17.0367 11.2456 16.7933 11.4898L15.7983 12.4839C15.555 12.7281 15.555 13.1239 15.7983 13.3681C16.0425 13.6114 16.4383 13.6114 16.6825 13.3681Z" fill="black"/>
<path d="M16.6825 13.3681L17.6767 12.3731C17.9208 12.1298 17.9208 11.7331 17.6767 11.4898C17.4333 11.2456 17.0367 11.2456 16.7933 11.4898L15.7983 12.4839C15.555 12.7281 15.555 13.1239 15.7983 13.3681C16.0425 13.6114 16.4383 13.6114 16.6825 13.3681Z" stroke="black"/>
<path d="M16.9267 15.208H18.3333C18.6783 15.208 18.9583 14.928 18.9583 14.583C18.9583 14.238 18.6783 13.958 18.3333 13.958H16.9267C16.5825 13.958 16.3025 14.238 16.3025 14.583C16.3017 14.928 16.5825 15.208 16.9267 15.208Z" fill="black"/>
<path d="M16.9267 15.208H18.3333C18.6783 15.208 18.9583 14.928 18.9583 14.583C18.9583 14.238 18.6783 13.958 18.3333 13.958H16.9267C16.5825 13.958 16.3025 14.238 16.3025 14.583C16.3017 14.928 16.5825 15.208 16.9267 15.208Z" stroke="black"/>
<path d="M15.7983 16.6824L16.7933 17.6766C17.0367 17.9207 17.4333 17.9207 17.6767 17.6766C17.9208 17.4332 17.9208 17.0366 17.6767 16.7932L16.6825 15.7982C16.4383 15.5549 16.0425 15.5549 15.7983 15.7982C15.555 16.0424 15.555 16.4382 15.7983 16.6824Z" fill="black"/>
<path d="M15.7983 16.6824L16.7933 17.6766C17.0367 17.9207 17.4333 17.9207 17.6767 17.6766C17.9208 17.4332 17.9208 17.0366 17.6767 16.7932L16.6825 15.7982C16.4383 15.5549 16.0425 15.5549 15.7983 15.7982C15.555 16.0424 15.555 16.4382 15.7983 16.6824Z" stroke="black"/>
<path d="M13.9583 16.9263V18.3329C13.9583 18.6779 14.2383 18.9579 14.5833 18.9579C14.9283 18.9579 15.2083 18.6779 15.2083 18.3329V16.9263C15.2083 16.5821 14.9283 16.3021 14.5833 16.3013C14.2383 16.3013 13.9583 16.5821 13.9583 16.9263Z" fill="black"/>
<path d="M13.9583 16.9263V18.3329C13.9583 18.6779 14.2383 18.9579 14.5833 18.9579C14.9283 18.9579 15.2083 18.6779 15.2083 18.3329V16.9263C15.2083 16.5821 14.9283 16.3021 14.5833 16.3013C14.2383 16.3013 13.9583 16.5821 13.9583 16.9263Z" stroke="black"/>
<path d="M12.4842 15.7982L11.49 16.7932C11.2458 17.0366 11.2458 17.4332 11.49 17.6766C11.7333 17.9207 12.13 17.9207 12.3733 17.6766L13.3683 16.6824C13.6117 16.4382 13.6117 16.0424 13.3683 15.7982C13.1242 15.5549 12.7283 15.5549 12.4842 15.7982Z" fill="black"/>
<path d="M12.4842 15.7982L11.49 16.7932C11.2458 17.0366 11.2458 17.4332 11.49 17.6766C11.7333 17.9207 12.13 17.9207 12.3733 17.6766L13.3683 16.6824C13.6117 16.4382 13.6117 16.0424 13.3683 15.7982C13.1242 15.5549 12.7283 15.5549 12.4842 15.7982Z" stroke="black"/>
<path d="M12.2391 13.958H10.8333C10.4883 13.958 10.2083 14.238 10.2083 14.583C10.2083 14.928 10.4883 15.208 10.8333 15.208H12.2391C12.5841 15.208 12.8649 14.928 12.8641 14.583C12.8641 14.238 12.5841 13.958 12.2391 13.958Z" fill="black"/>
<path d="M12.2391 13.958H10.8333C10.4883 13.958 10.2083 14.238 10.2083 14.583C10.2083 14.928 10.4883 15.208 10.8333 15.208H12.2391C12.5841 15.208 12.8649 14.928 12.8641 14.583C12.8641 14.238 12.5841 13.958 12.2391 13.958Z" stroke="black"/>
<path d="M13.3683 12.4839L12.3733 11.4898C12.13 11.2456 11.7333 11.2456 11.49 11.4898C11.2458 11.7331 11.2458 12.1298 11.49 12.3731L12.4842 13.3681C12.7283 13.6114 13.1242 13.6114 13.3683 13.3681C13.6117 13.1239 13.6117 12.7281 13.3683 12.4839Z" fill="black"/>
<path d="M13.3683 12.4839L12.3733 11.4898C12.13 11.2456 11.7333 11.2456 11.49 11.4898C11.2458 11.7331 11.2458 12.1298 11.49 12.3731L12.4842 13.3681C12.7283 13.6114 13.1242 13.6114 13.3683 13.3681C13.6117 13.1239 13.6117 12.7281 13.3683 12.4839Z" stroke="black"/>
</svg>
