<svg width="24" height="24" viewBox="0 0 24 24" fill="none" xmlns="http://www.w3.org/2000/svg">
<path d="M21.6667 16.6667H20.6667V6.33333C20.6671 6.26909 20.6487 6.20613 20.6137 6.15223C20.5788 6.09833 20.5288 6.05584 20.47 6.03L11.47 2.03C11.4272 2.01023 11.3805 2 11.3333 2C11.2862 2 11.2395 2.01023 11.1967 2.03L2.19667 6.03C2.13786 6.05584 2.08789 6.09833 2.05294 6.15223C2.018 6.20613 1.99959 6.26909 2.00001 6.33333V20.3333C2.00001 20.4217 2.03513 20.5065 2.09764 20.569C2.16015 20.6315 2.24493 20.6667 2.33334 20.6667H10.6667V21.6667C10.6667 21.7551 10.7018 21.8399 10.7643 21.9024C10.8268 21.9649 10.9116 22 11 22H21.6667C21.7551 22 21.8399 21.9649 21.9024 21.9024C21.9649 21.8399 22 21.7551 22 21.6667V17C22 16.9116 21.9649 16.8268 21.9024 16.7643C21.8399 16.7018 21.7551 16.6667 21.6667 16.6667ZM2.66667 6.55L11.3333 2.69666L20 6.55V7.33333H2.66667V6.55ZM4.66667 20H2.66667V8H20V16.6667H19.3333V12.3333C19.3333 12.2449 19.2982 12.1601 19.2357 12.0976C19.1732 12.0351 19.0884 12 19 12H18V11.3333H18.3333C18.4217 11.3333 18.5065 11.2982 18.569 11.2357C18.6316 11.1732 18.6667 11.0884 18.6667 11V9.66666C18.6667 9.57826 18.6316 9.49347 18.569 9.43096C18.5065 9.36845 18.4217 9.33333 18.3333 9.33333H4.33334C4.24494 9.33333 4.16015 9.36845 4.09764 9.43096C4.03513 9.49347 4.00001 9.57826 4.00001 9.66666V11C4.00001 11.0884 4.03513 11.1732 4.09764 11.2357C4.16015 11.2982 4.24494 11.3333 4.33334 11.3333H4.66667V20ZM13.3333 14V14.6667H5.33334V14H13.3333ZM5.33334 13.3333V12.6667H13.3333V13.3333H5.33334ZM14 17.3333V18.46L13.8167 18.37C13.7703 18.3459 13.7189 18.3333 13.6667 18.3333C13.6145 18.3333 13.563 18.3459 13.5167 18.37L13.3333 18.46V17.3333H14ZM5.33334 12V11.3333H17.3333V12H5.33334ZM16.6667 12.6667V13.7933L16.4833 13.7033C16.437 13.6792 16.3856 13.6666 16.3333 13.6666C16.2811 13.6666 16.2297 13.6792 16.1833 13.7033L16 13.7933V12.6667H16.6667ZM14 12.6667H15.3333V14.3333C15.3335 14.3902 15.3482 14.446 15.376 14.4955C15.4039 14.5451 15.4439 14.5867 15.4923 14.6164C15.5407 14.6461 15.596 14.663 15.6527 14.6654C15.7095 14.6677 15.7659 14.6556 15.8167 14.63L16.3333 14.3733L16.85 14.63C16.8966 14.6535 16.9479 14.666 17 14.6667C17.0624 14.6666 17.1235 14.6493 17.1767 14.6167C17.2247 14.5866 17.2643 14.5449 17.2917 14.4953C17.3191 14.4457 17.3335 14.39 17.3333 14.3333V12.6667H18.6667V16.6667H14V12.6667ZM18.6667 17.3333H19.3333V18.46L19.15 18.37C19.1037 18.3459 19.0522 18.3333 19 18.3333C18.9478 18.3333 18.8963 18.3459 18.85 18.37L18.6667 18.46V17.3333ZM4.66667 10H18V10.6667H4.66667V10ZM10.6667 17V20H5.33334V15.3333H13.3333V16.6667H11C10.9116 16.6667 10.8268 16.7018 10.7643 16.7643C10.7018 16.8268 10.6667 16.9116 10.6667 17ZM16 21.3333H11.3333V17.3333H12.6667V19C12.6668 19.0568 12.6815 19.1127 12.7094 19.1622C12.7372 19.2117 12.7772 19.2534 12.8256 19.2831C12.8741 19.3128 12.9293 19.3297 12.9861 19.332C13.0428 19.3344 13.0993 19.3222 13.15 19.2967L13.6667 19.04L14.1833 19.2967C14.2299 19.3201 14.2812 19.3327 14.3333 19.3333C14.3957 19.3333 14.4569 19.316 14.51 19.2833C14.558 19.2533 14.5976 19.2115 14.6251 19.162C14.6525 19.1124 14.6668 19.0566 14.6667 19V17.3333H16V21.3333ZM21.3333 21.3333H16.6667V17.3333H18V19C18.0002 19.0568 18.0149 19.1127 18.0427 19.1622C18.0705 19.2117 18.1105 19.2534 18.159 19.2831C18.2074 19.3128 18.2626 19.3297 18.3194 19.332C18.3762 19.3344 18.4326 19.3222 18.4833 19.2967L19 19.04L19.5167 19.2967C19.5632 19.3201 19.6145 19.3327 19.6667 19.3333C19.729 19.3333 19.7902 19.316 19.8433 19.2833C19.8914 19.2533 19.931 19.2115 19.9584 19.162C19.9858 19.1124 20.0001 19.0566 20 19V17.3333H21.3333V21.3333Z" fill="#141414"/>
<path d="M11.3333 4C11.0696 4 10.8118 4.0782 10.5926 4.22471C10.3733 4.37122 10.2024 4.57945 10.1015 4.82309C10.0006 5.06672 9.97417 5.33481 10.0256 5.59345C10.0771 5.8521 10.2041 6.08967 10.3905 6.27614C10.577 6.46261 10.8146 6.5896 11.0732 6.64105C11.3319 6.69249 11.5999 6.66609 11.8436 6.56517C12.0872 6.46426 12.2955 6.29336 12.442 6.07409C12.5885 5.85483 12.6667 5.59704 12.6667 5.33333C12.6667 4.97971 12.5262 4.64057 12.2761 4.39052C12.0261 4.14048 11.687 4 11.3333 4ZM11.3333 6C11.2015 6 11.0726 5.9609 10.963 5.88765C10.8533 5.81439 10.7679 5.71027 10.7174 5.58846C10.667 5.46664 10.6538 5.33259 10.6795 5.20327C10.7052 5.07395 10.7687 4.95516 10.8619 4.86193C10.9552 4.76869 11.074 4.7052 11.2033 4.67948C11.3326 4.65375 11.4666 4.66696 11.5885 4.71741C11.7103 4.76787 11.8144 4.85332 11.8876 4.96295C11.9609 5.07259 12 5.20148 12 5.33333C12 5.51014 11.9298 5.67971 11.8047 5.80474C11.6797 5.92976 11.5101 6 11.3333 6Z" fill="black"/>
</svg>
