<svg width="20" height="20" viewBox="0 0 20 20" fill="none" xmlns="http://www.w3.org/2000/svg">
<path d="M19 0H1C0.735027 0.000791364 0.481133 0.106402 0.293767 0.293767C0.106402 0.481133 0.000791364 0.735027 0 1V19C0.000791364 19.265 0.106402 19.5189 0.293767 19.7062C0.481133 19.8936 0.735027 19.9992 1 20H19C19.265 19.9992 19.5189 19.8936 19.7062 19.7062C19.8936 19.5189 19.9992 19.265 20 19V1C19.9992 0.735027 19.8936 0.481133 19.7062 0.293767C19.5189 0.106402 19.265 0.000791364 19 0ZM19.3333 19C19.3333 19.0884 19.2982 19.1732 19.2357 19.2357C19.1732 19.2982 19.0884 19.3333 19 19.3333H1C0.911595 19.3333 0.82681 19.2982 0.764298 19.2357C0.701786 19.1732 0.666667 19.0884 0.666667 19V3.33333H19.3333V19ZM19.3333 2.66667H0.666667V1C0.666667 0.911595 0.701786 0.82681 0.764298 0.764298C0.82681 0.701786 0.911595 0.666667 1 0.666667H19C19.0884 0.666667 19.1732 0.701786 19.2357 0.764298C19.2982 0.82681 19.3333 0.911595 19.3333 1V2.66667Z" fill="#141414"/>
<path d="M11 5.33317H11.3333C11.4217 5.33317 11.5065 5.29805 11.569 5.23554C11.6315 5.17303 11.6666 5.08824 11.6666 4.99984C11.6666 4.91143 11.6315 4.82665 11.569 4.76413C11.5065 4.70162 11.4217 4.6665 11.3333 4.6665H11C10.9116 4.6665 10.8268 4.70162 10.7643 4.76413C10.7017 4.82665 10.6666 4.91143 10.6666 4.99984C10.6666 5.08824 10.7017 5.17303 10.7643 5.23554C10.8268 5.29805 10.9116 5.33317 11 5.33317Z" fill="#141414"/>
<path d="M2.33333 12.6667H2.66667C2.75507 12.6667 2.83986 12.6315 2.90237 12.569C2.96488 12.5065 3 12.4217 3 12.3333C3 12.2449 2.96488 12.1601 2.90237 12.0976C2.83986 12.0351 2.75507 12 2.66667 12H2.33333C2.24493 12 2.16014 12.0351 2.09763 12.0976C2.03512 12.1601 2 12.2449 2 12.3333C2 12.4217 2.03512 12.5065 2.09763 12.569C2.16014 12.6315 2.24493 12.6667 2.33333 12.6667Z" fill="#141414"/>
<path d="M9.00004 17.3335H8.66671C8.5783 17.3335 8.49352 17.3686 8.431 17.4311C8.36849 17.4936 8.33337 17.5784 8.33337 17.6668C8.33337 17.7552 8.36849 17.84 8.431 17.9025C8.49352 17.965 8.5783 18.0002 8.66671 18.0002H9.00004C9.08845 18.0002 9.17323 17.965 9.23574 17.9025C9.29826 17.84 9.33337 17.7552 9.33337 17.6668C9.33337 17.5784 9.29826 17.4936 9.23574 17.4311C9.17323 17.3686 9.08845 17.3335 9.00004 17.3335Z" fill="#141414"/>
<path d="M17.6667 10H17.3333C17.2449 10 17.1601 10.0351 17.0976 10.0976C17.0351 10.1601 17 10.2449 17 10.3333C17 10.4217 17.0351 10.5065 17.0976 10.569C17.1601 10.6315 17.2449 10.6667 17.3333 10.6667H17.6667C17.7551 10.6667 17.8399 10.6315 17.9024 10.569C17.9649 10.5065 18 10.4217 18 10.3333C18 10.2449 17.9649 10.1601 17.9024 10.0976C17.8399 10.0351 17.7551 10 17.6667 10Z" fill="#141414"/>
<path d="M3.66663 12.3333C3.66663 12.4217 3.70174 12.5065 3.76426 12.569C3.82677 12.6315 3.91155 12.6667 3.99996 12.6667H8.99996C9.08836 12.6667 9.17315 12.6315 9.23566 12.569C9.29817 12.5065 9.33329 12.4217 9.33329 12.3333C9.33329 12.2449 9.29817 12.1601 9.23566 12.0976C9.17315 12.0351 9.08836 12 8.99996 12H3.99996C3.91155 12 3.82677 12.0351 3.76426 12.0976C3.70174 12.1601 3.66663 12.2449 3.66663 12.3333Z" fill="#141414"/>
<path d="M11 10.6667H16C16.0884 10.6667 16.1731 10.6315 16.2357 10.569C16.2982 10.5065 16.3333 10.4217 16.3333 10.3333C16.3333 10.2449 16.2982 10.1601 16.2357 10.0976C16.1731 10.0351 16.0884 10 16 10H11C10.9116 10 10.8268 10.0351 10.7643 10.0976C10.7017 10.1601 10.6666 10.2449 10.6666 10.3333C10.6666 10.4217 10.7017 10.5065 10.7643 10.569C10.8268 10.6315 10.9116 10.6667 11 10.6667Z" fill="#141414"/>
<path d="M11 9.33317H17.6666C17.755 9.33317 17.8398 9.29805 17.9023 9.23554C17.9648 9.17303 18 9.08824 18 8.99984C18 8.91143 17.9648 8.82665 17.9023 8.76413C17.8398 8.70162 17.755 8.6665 17.6666 8.6665H11C10.9116 8.6665 10.8268 8.70162 10.7643 8.76413C10.7017 8.82665 10.6666 8.91143 10.6666 8.99984C10.6666 9.08824 10.7017 9.17303 10.7643 9.23554C10.8268 9.29805 10.9116 9.33317 11 9.33317Z" fill="#141414"/>
<path d="M11 8.00016H17.6666C17.755 8.00016 17.8398 7.96504 17.9023 7.90253C17.9648 7.84002 18 7.75523 18 7.66683C18 7.57842 17.9648 7.49364 17.9023 7.43113C17.8398 7.36861 17.755 7.3335 17.6666 7.3335H11C10.9116 7.3335 10.8268 7.36861 10.7643 7.43113C10.7017 7.49364 10.6666 7.57842 10.6666 7.66683C10.6666 7.75523 10.7017 7.84002 10.7643 7.90253C10.8268 7.96504 10.9116 8.00016 11 8.00016Z" fill="#141414"/>
<path d="M11 6.66667H17.6666C17.755 6.66667 17.8398 6.63155 17.9023 6.56904C17.9648 6.50652 18 6.42174 18 6.33333C18 6.24493 17.9648 6.16014 17.9023 6.09763C17.8398 6.03512 17.755 6 17.6666 6H11C10.9116 6 10.8268 6.03512 10.7643 6.09763C10.7017 6.16014 10.6666 6.24493 10.6666 6.33333C10.6666 6.42174 10.7017 6.50652 10.7643 6.56904C10.8268 6.63155 10.9116 6.66667 11 6.66667Z" fill="#141414"/>
<path d="M12.6667 5.33317H17.6667C17.7551 5.33317 17.8399 5.29805 17.9024 5.23554C17.9649 5.17303 18 5.08824 18 4.99984C18 4.91143 17.9649 4.82665 17.9024 4.76413C17.8399 4.70162 17.7551 4.6665 17.6667 4.6665H12.6667C12.5783 4.6665 12.4935 4.70162 12.431 4.76413C12.3685 4.82665 12.3334 4.91143 12.3334 4.99984C12.3334 5.08824 12.3685 5.17303 12.431 5.23554C12.4935 5.29805 12.5783 5.33317 12.6667 5.33317Z" fill="#141414"/>
<path d="M2.33333 14.0002H9C9.08841 14.0002 9.17319 13.965 9.2357 13.9025C9.29821 13.84 9.33333 13.7552 9.33333 13.6668C9.33333 13.5784 9.29821 13.4936 9.2357 13.4311C9.17319 13.3686 9.08841 13.3335 9 13.3335H2.33333C2.24493 13.3335 2.16014 13.3686 2.09763 13.4311C2.03512 13.4936 2 13.5784 2 13.6668C2 13.7552 2.03512 13.84 2.09763 13.9025C2.16014 13.965 2.24493 14.0002 2.33333 14.0002Z" fill="#141414"/>
<path d="M2.33333 15.3332H9C9.08841 15.3332 9.17319 15.2981 9.2357 15.2355C9.29821 15.173 9.33333 15.0882 9.33333 14.9998C9.33333 14.9114 9.29821 14.8266 9.2357 14.7641C9.17319 14.7016 9.08841 14.6665 9 14.6665H2.33333C2.24493 14.6665 2.16014 14.7016 2.09763 14.7641C2.03512 14.8266 2 14.9114 2 14.9998C2 15.0882 2.03512 15.173 2.09763 15.2355C2.16014 15.2981 2.24493 15.3332 2.33333 15.3332Z" fill="#141414"/>
<path d="M2.33333 16.6667H9C9.08841 16.6667 9.17319 16.6315 9.2357 16.569C9.29821 16.5065 9.33333 16.4217 9.33333 16.3333C9.33333 16.2449 9.29821 16.1601 9.2357 16.0976C9.17319 16.0351 9.08841 16 9 16H2.33333C2.24493 16 2.16014 16.0351 2.09763 16.0976C2.03512 16.1601 2 16.2449 2 16.3333C2 16.4217 2.03512 16.5065 2.09763 16.569C2.16014 16.6315 2.24493 16.6667 2.33333 16.6667Z" fill="#141414"/>
<path d="M2.33333 18.0002H7.33333C7.42174 18.0002 7.50652 17.965 7.56904 17.9025C7.63155 17.84 7.66667 17.7552 7.66667 17.6668C7.66667 17.5784 7.63155 17.4936 7.56904 17.4311C7.50652 17.3686 7.42174 17.3335 7.33333 17.3335H2.33333C2.24493 17.3335 2.16014 17.3686 2.09763 17.4311C2.03512 17.4936 2 17.5784 2 17.6668C2 17.7552 2.03512 17.84 2.09763 17.9025C2.16014 17.965 2.24493 18.0002 2.33333 18.0002Z" fill="#141414"/>
<path d="M11 18H17.6666C17.755 18 17.8398 17.9649 17.9023 17.9024C17.9648 17.8399 18 17.7551 18 17.6667V12.3333C18 12.2449 17.9648 12.1601 17.9023 12.0976C17.8398 12.0351 17.755 12 17.6666 12H11C10.9116 12 10.8268 12.0351 10.7643 12.0976C10.7017 12.1601 10.6666 12.2449 10.6666 12.3333V17.6667C10.6666 17.7551 10.7017 17.8399 10.7643 17.9024C10.8268 17.9649 10.9116 18 11 18ZM11.3333 12.6667H17.3333V17.3333H11.3333V12.6667Z" fill="#141414"/>
<path d="M2.00004 1.3335H1.66671C1.5783 1.3335 1.49352 1.36862 1.43101 1.43113C1.36849 1.49364 1.33337 1.57842 1.33337 1.66683C1.33337 1.75523 1.36849 1.84002 1.43101 1.90253C1.49352 1.96504 1.5783 2.00016 1.66671 2.00016H2.00004C2.08845 2.00016 2.17323 1.96504 2.23574 1.90253C2.29826 1.84002 2.33337 1.75523 2.33337 1.66683C2.33337 1.57842 2.29826 1.49364 2.23574 1.43113C2.17323 1.36862 2.08845 1.3335 2.00004 1.3335Z" fill="#141414"/>
<path d="M3.66667 1.3335H3.33333C3.24493 1.3335 3.16014 1.36862 3.09763 1.43113C3.03512 1.49364 3 1.57842 3 1.66683C3 1.75523 3.03512 1.84002 3.09763 1.90253C3.16014 1.96504 3.24493 2.00016 3.33333 2.00016H3.66667C3.75507 2.00016 3.83986 1.96504 3.90237 1.90253C3.96488 1.84002 4 1.75523 4 1.66683C4 1.57842 3.96488 1.49364 3.90237 1.43113C3.83986 1.36862 3.75507 1.3335 3.66667 1.3335Z" fill="#141414"/>
<path d="M5.33329 1.3335H4.99996C4.91155 1.3335 4.82677 1.36862 4.76426 1.43113C4.70174 1.49364 4.66663 1.57842 4.66663 1.66683C4.66663 1.75523 4.70174 1.84002 4.76426 1.90253C4.82677 1.96504 4.91155 2.00016 4.99996 2.00016H5.33329C5.4217 2.00016 5.50648 1.96504 5.569 1.90253C5.63151 1.84002 5.66663 1.75523 5.66663 1.66683C5.66663 1.57842 5.63151 1.49364 5.569 1.43113C5.50648 1.36862 5.4217 1.3335 5.33329 1.3335Z" fill="#141414"/>
<path d="M18.3333 1.3335H18C17.9116 1.3335 17.8268 1.36862 17.7643 1.43113C17.7017 1.49364 17.6666 1.57842 17.6666 1.66683C17.6666 1.75523 17.7017 1.84002 17.7643 1.90253C17.8268 1.96504 17.9116 2.00016 18 2.00016H18.3333C18.4217 2.00016 18.5065 1.96504 18.569 1.90253C18.6315 1.84002 18.6666 1.75523 18.6666 1.66683C18.6666 1.57842 18.6315 1.49364 18.569 1.43113C18.5065 1.36862 18.4217 1.3335 18.3333 1.3335Z" fill="#141414"/>
<path d="M16.6667 1.3335H8.66671C8.5783 1.3335 8.49352 1.36862 8.431 1.43113C8.36849 1.49364 8.33337 1.57842 8.33337 1.66683C8.33337 1.75523 8.36849 1.84002 8.431 1.90253C8.49352 1.96504 8.5783 2.00016 8.66671 2.00016H16.6667C16.7551 2.00016 16.8399 1.96504 16.9024 1.90253C16.9649 1.84002 17 1.75523 17 1.66683C17 1.57842 16.9649 1.49364 16.9024 1.43113C16.8399 1.36862 16.7551 1.3335 16.6667 1.3335Z" fill="#141414"/>
<path d="M5.66663 10.6665C6.25997 10.6665 6.83999 10.4906 7.33334 10.1609C7.82668 9.83127 8.2112 9.36273 8.43826 8.81456C8.66533 8.26638 8.72474 7.66318 8.60898 7.08123C8.49323 6.49929 8.2075 5.96474 7.78795 5.54519C7.36839 5.12563 6.83384 4.83991 6.2519 4.72415C5.66995 4.60839 5.06675 4.6678 4.51858 4.89487C3.9704 5.12193 3.50186 5.50645 3.17222 5.99979C2.84257 6.49314 2.66663 7.07316 2.66663 7.66651C2.6676 8.46186 2.98398 9.22436 3.54638 9.78675C4.10878 10.3492 4.87127 10.6655 5.66663 10.6665ZM7.53329 9.06117L6.47129 7.99984H7.97329C7.91811 8.38496 7.76679 8.74997 7.53329 9.06117ZM5.99996 5.35984C6.49761 5.43219 6.95856 5.66339 7.31415 6.01898C7.66974 6.37457 7.90094 6.83552 7.97329 7.33317H5.99996V5.35984ZM5.33329 5.35984V7.66651C5.33331 7.7549 5.36844 7.83967 5.43096 7.90217L7.06129 9.53317C6.77693 9.74583 6.44774 9.89071 6.09884 9.95673C5.74995 10.0228 5.39058 10.0082 5.04817 9.91415C4.70577 9.8201 4.38938 9.64906 4.12316 9.41408C3.85694 9.17911 3.64793 8.88641 3.51209 8.55833C3.37625 8.23026 3.31716 7.87548 3.33935 7.52109C3.36154 7.1667 3.46441 6.82206 3.64011 6.51349C3.8158 6.20492 4.05969 5.94057 4.35313 5.74063C4.64658 5.54069 4.98183 5.41045 5.33329 5.35984Z" fill="#141414"/>
<path d="M16.6334 13.1841C16.6065 13.1304 16.5657 13.0849 16.5151 13.0524C16.4645 13.02 16.4061 13.0018 16.346 12.9998C16.2861 12.9956 16.2262 13.0085 16.1734 13.0371C16.1205 13.0656 16.0769 13.1087 16.0477 13.1611L15.1447 14.6665H14.3334C14.2816 14.6665 14.2306 14.6785 14.1843 14.7017C14.138 14.7248 14.0977 14.7584 14.0667 14.7998L13.2974 15.8258L12.9024 15.4308C12.8399 15.3686 12.7553 15.3337 12.6672 15.3337C12.579 15.3337 12.4945 15.3686 12.432 15.4308L11.4357 16.4198C11.3762 16.4827 11.3435 16.5663 11.3445 16.6529C11.3455 16.7395 11.3802 16.8222 11.4412 16.8837C11.5022 16.9452 11.5847 16.9805 11.6713 16.9822C11.7578 16.9839 11.8417 16.9518 11.905 16.8928L12.6667 16.1371L13.1 16.5705C13.1336 16.6045 13.1742 16.6309 13.219 16.6476C13.2638 16.6644 13.3117 16.6712 13.3594 16.6675C13.4071 16.664 13.4534 16.6503 13.4954 16.6273C13.5373 16.6043 13.5738 16.5725 13.6024 16.5341L14.5 15.3331H15.3334C15.3909 15.3331 15.4474 15.3182 15.4975 15.2899C15.5475 15.2616 15.5894 15.2208 15.619 15.1715L16.3067 14.0255L16.7017 14.8155C16.7412 14.8946 16.8105 14.9548 16.8944 14.9828C16.9783 15.0108 17.0699 15.0043 17.149 14.9648C17.2281 14.9253 17.2883 14.856 17.3163 14.7721C17.3443 14.6882 17.3379 14.5966 17.2984 14.5175L16.6334 13.1841Z" fill="#141414"/>
</svg>
